<svg preserveAspectRatio="none" overflow="visible" style="display: block;" width="42" height="25.9606" viewBox="0 0 42 25.9606" fill="none" xmlns="http://www.w3.org/2000/svg">
<g id="Group 1">
<path id="Vector" d="M17.7963 0.0121015C27.1846 1.33041 31.1651 -1.82135 32.1567 9.61995C36.2831 9.32313 37.2947 13.4491 36.4091 16.74C37.0233 18.0231 37.1774 19.6805 35.9403 20.7035C33.3309 21.6312 34.5784 20.1132 33.8355 23.9137C33.6133 24.9164 32.9763 26.1272 31.7543 25.9416C30.0149 25.9091 28.3061 25.2262 28.7156 23.1783C28.8158 22.4512 28.8349 21.7127 28.8919 20.965C23.2233 20.965 17.5788 20.965 11.859 20.965C11.8123 22.0644 12.0211 23.2694 11.6511 24.3487C11.2485 25.7338 9.77228 25.865 8.55362 25.6101C6.08544 25.2719 6.68794 22.5841 6.76521 20.7836C4.89032 21.1113 3.77123 18.383 5.04481 17.0703C5.44462 16.8814 4.25919 15.6907 4.32336 15.009C3.58201 11.9259 5.02241 9.07716 8.52844 9.38522C8.70695 9.37991 8.79535 9.32873 8.84547 9.1449C10.6715 3.72047 10.9196 -0.248221 17.7963 0.0121015ZM11.7961 9.30295C11.8391 7.30093 14.2546 6.19209 16.027 6.77531C18.6836 7.40148 18.1039 9.07702 19.1157 9.45363C22.7704 9.43832 26.4323 9.60398 30.081 9.56566C29.5551 7.73671 29.6259 3.24852 27.2797 2.99566C23.1983 2.5837 19.0453 1.85708 14.9495 2.37351C12.2956 2.94969 12.0206 6.46098 10.962 8.53207C10.3682 9.55456 10.9058 9.27276 11.7961 9.30295ZM6.35878 18.5526C14.978 19.1031 23.6129 18.6024 32.2363 19.007C32.8165 18.8871 35.2116 19.4144 35.0145 18.582C35.0283 18.4093 35.0284 18.1967 34.7566 18.179C29.5099 17.7311 24.2379 18.084 18.9838 17.6783C17.0278 17.7122 6.51163 16.8749 6.35878 18.5526ZM32.7468 13.7345C32.7343 11.9771 30.3846 12.4899 30.1616 13.8783C29.8397 15.9988 32.8915 15.6117 32.7468 13.7345ZM30.6743 21.0323C30.6281 21.8551 30.5813 22.6961 30.5332 23.537C30.5736 24.0952 31.3833 23.8793 31.7925 24.0345C32.1591 23.0666 32.178 22.0725 32.149 21.0323C31.6473 21.0323 31.1735 21.0323 30.6743 21.0323ZM9.8213 15.5881C10.8339 14.9402 10.8007 12.2286 9.17506 13.1545C8.06853 14.1172 8.52143 15.1582 9.8213 15.5881ZM8.67813 20.8052C8.67813 21.4737 8.67218 22.1315 8.67956 22.7891C8.68988 23.7067 8.67602 23.5817 9.44811 23.6656C9.67775 23.6905 9.78351 23.6377 9.78447 23.4165C9.78821 22.5545 9.786 21.6924 9.786 20.8052C9.47358 20.8052 9.12959 20.8052 8.67813 20.8052ZM13.9165 9.34188C14.8772 9.34188 15.8137 9.34188 16.7616 9.34188C16.0446 8.36651 14.4505 8.34977 13.9165 9.34188Z" fill="#111827" style="fill:#111827;fill:color(display-p3 0.0667 0.0941 0.1529);fill-opacity:1;"/>
<path id="Vector_2" d="M42 6.39663C41.2826 7.94538 40.0181 9.17798 39.0588 10.5829C38.7668 11.0307 38.1568 11.2406 37.7173 10.9337C36.3169 9.80131 39.5688 7.18021 40.116 5.96816C40.6416 5.15134 41.9071 5.32636 42 6.39663Z" fill="#111827" style="fill:#111827;fill:color(display-p3 0.0667 0.0941 0.1529);fill-opacity:1;"/>
<path id="Vector_3" d="M7.43794 6.98199C7.51809 8.27798 5.97278 8.52381 5.66925 7.32713C5.57802 5.90201 3.61321 2.76268 5.33298 2.00521C7.16788 1.65814 6.98444 5.71883 7.43794 6.98199Z" fill="#111827" style="fill:#111827;fill:color(display-p3 0.0667 0.0941 0.1529);fill-opacity:1;"/>
<path id="Vector_4" d="M1.01181 7.93701C1.80806 8.26139 3.63464 9.59455 3.25608 10.614C2.4503 12.2639 0.971653 10.23 0.192872 9.54523C-0.319064 8.95706 0.2689 7.97142 1.01181 7.93701Z" fill="#111827" style="fill:#111827;fill:color(display-p3 0.0667 0.0941 0.1529);fill-opacity:1;"/>
<path id="Vector_5" d="M35.878 6.06687C35.6494 6.8826 35.9806 8.60825 34.7544 8.59838C33.6279 8.41861 34.0264 6.78153 33.8976 5.95623C33.9156 4.55082 35.9838 4.67474 35.878 6.06687Z" fill="#111827" style="fill:#111827;fill:color(display-p3 0.0667 0.0941 0.1529);fill-opacity:1;"/>
<path id="Vector_6" d="M13.8898 9.4252C14.4173 8.31347 15.9923 8.33223 16.7008 9.4252C15.7643 9.4252 14.839 9.4252 13.8898 9.4252Z" fill="#111827" style="fill:#111827;fill:color(display-p3 0.0667 0.0941 0.1529);fill-opacity:1;"/>
</g>
</svg>
